<svg width="91" height="96" viewBox="0 0 91 96" fill="none" xmlns="http://www.w3.org/2000/svg">
<path d="M81.4211 0H14.3684C11.7342 0 9.57895 2.15526 9.57895 4.78947V23.9474H0V33.5263H9.57895V43.1053H0V52.6842H9.57895V62.2632H0V71.8421H9.57895V91C9.57895 93.6342 11.7342 95.7895 14.3684 95.7895H81.4211C86.6895 95.7895 91 91.4789 91 86.2105V9.57895C91 4.31053 86.6895 0 81.4211 0ZM71.8421 62.2632H28.7368V57.4737H71.8421V62.2632ZM28.7368 52.6842C28.7368 41.6205 37.1184 32.5684 47.8947 31.3711V28.7368H52.6842V31.3711C63.4605 32.5684 71.8421 41.6205 71.8421 52.6842H28.7368Z" fill="#955430"/>
</svg>
